<?xml version="1.0" encoding="UTF-8"?>
<svg version="1.1" xmlns="http://www.w3.org/2000/svg" width="600" height="600">
<path d="M0 0 C0.57008789 0.46116211 1.14017578 0.92232422 1.72753906 1.39746094 C13.58516058 11.07168718 25.13459746 21.27225107 35 33 C35.44666016 33.52899902 35.89332031 34.05799805 36.35351562 34.60302734 C78.53298561 84.90161722 100.31778904 150.11479223 95.5 215.796875 C90.43923398 272.66390374 68.42916842 323.15938554 31 366 C30.2059375 366.9178125 29.411875 367.835625 28.59375 368.78125 C24.67145346 373.24084744 20.67299735 377.36008035 16.125 381.1796875 C14.60996555 382.47749274 13.13428975 383.8218398 11.6875 385.1953125 C-35.607531 430.03907665 -102.10147419 449.59087363 -166.07128906 448.13623047 C-218.91807033 446.30373582 -269.6395415 426.56036094 -311 394 C-311.804375 393.37351562 -311.804375 393.37351562 -312.625 392.734375 C-328.83143034 380.00075116 -344.07187364 364.82845883 -356 348 C-356.44456543 347.38382812 -356.88913086 346.76765625 -357.34716797 346.1328125 C-385.66328277 306.75710522 -404.95221853 259.00317615 -405.203125 209.98828125 C-405.21018463 209.06558945 -405.21724426 208.14289764 -405.22451782 207.19224548 C-405.45319193 168.5396198 -405.45319193 168.5396198 -402 152 C-401.79600586 151.00774414 -401.59201172 150.01548828 -401.38183594 148.99316406 C-396.73049614 126.99577979 -389.83802832 106.21351615 -380 86 C-379.64180176 85.26297852 -379.28360352 84.52595703 -378.91455078 83.76660156 C-368.58617348 62.80732242 -354.81118521 44.12878398 -339 27 C-338.175 26.071875 -337.35 25.14375 -336.5 24.1875 C-331.60868914 18.69968781 -326.63766424 13.70467051 -321 9 C-320.1028125 8.20335937 -319.205625 7.40671875 -318.28125 6.5859375 C-244.56953511 -58.46647484 -134.79853683 -70.49653858 0 0 Z " fill="#F6AB48" transform="translate(455,103)"/>
<path d="M0 0 C3.07469523 1.70251719 5.40613254 3.81226508 7 7 C7.37189737 12.67143484 7.22993363 15.21411302 4 20 C2.00911831 22.27000542 -0.11802246 24.39145069 -2.25976562 26.51855469 C-2.88936691 27.15166061 -3.5189682 27.78476654 -4.16764832 28.4370575 C-6.24219195 30.52037679 -8.32393357 32.59632689 -10.40625 34.671875 C-11.85238427 36.11935678 -13.29822157 37.56713532 -14.74377441 39.01519775 C-17.77011426 42.04448293 -20.80003426 45.07012885 -23.83251953 48.09326172 C-27.72333475 51.97266243 -31.60507581 55.86099943 -35.48419952 59.75208664 C-38.46593832 62.74104252 -41.45241192 65.72523074 -44.44035339 68.70798492 C-45.873987 70.14028268 -47.30613174 71.57407226 -48.73677063 73.00936127 C-50.73313294 75.01078841 -52.73576921 77.00571601 -54.74023438 78.99902344 C-55.33253342 79.59537094 -55.92483246 80.19171844 -56.53507996 80.80613708 C-63.79288421 87.98907244 -73.05438683 87.09750641 -82.80712891 87.05004883 C-85.00725186 87.03273043 -87.20721387 87.00995251 -89.40724564 86.98346901 C-91.7797444 86.95642503 -94.15214461 86.93881305 -96.52474976 86.92399597 C-103.26211901 86.88163367 -109.99929204 86.83353961 -116.73632812 86.75317383 C-120.87926907 86.70443252 -125.02195145 86.67560074 -129.16514206 86.65942955 C-130.73194061 86.6495966 -132.29871253 86.63248602 -133.865345 86.60764503 C-144.9619473 86.34179516 -144.9619473 86.34179516 -155.21932983 90.2351532 C-157.54485729 91.23403119 -158.6791979 90.91876051 -161 90 C-162.42529297 88.15600586 -162.42529297 88.15600586 -163.7421875 85.71484375 C-164.24347168 84.80436279 -164.74475586 83.89388184 -165.26123047 82.95581055 C-165.79377441 81.95976807 -166.32631836 80.96372559 -166.875 79.9375 C-168.03999349 77.81678833 -169.20671409 75.69702468 -170.375 73.578125 C-170.97441406 72.48435547 -171.57382813 71.39058594 -172.19140625 70.26367188 C-175.00327587 65.18955293 -177.93697315 60.18927496 -180.875 55.1875 C-182.03003776 53.20708365 -183.18498423 51.22661405 -184.33984375 49.24609375 C-186.60118626 45.3763272 -188.87906882 41.51710162 -191.17272949 37.66645813 C-192.59200468 35.27889258 -194.00130738 32.88553019 -195.40899658 30.49111938 C-196.41932141 28.78077393 -197.44270597 27.07816465 -198.46630859 25.37573242 C-199.0742627 24.33908447 -199.6822168 23.30243652 -200.30859375 22.234375 C-200.85314209 21.31881836 -201.39769043 20.40326172 -201.95874023 19.45996094 C-203 17 -203 17 -202.80004883 14.77490234 C-201.59501002 12.10153275 -199.76936382 11.29866417 -197.25 9.875 C-196.38890625 9.37742187 -195.5278125 8.87984375 -194.640625 8.3671875 C-187.3887135 4.61249959 -181.13798649 3.9265846 -173 5 C-164.4648805 8.07226949 -156.76926124 13.22373762 -149.23046875 18.203125 C-140.92308037 22.82392144 -133.20982771 23.42326407 -123.82369423 23.38012505 C-121.63251045 23.37091181 -119.44216371 23.38135034 -117.25102234 23.39674377 C-111.02860572 23.43657939 -104.80626334 23.43804182 -98.58374023 23.43579102 C-94.76063569 23.43573982 -90.93798988 23.45494355 -87.11501122 23.48512459 C-84.96441297 23.49590019 -82.81470763 23.48385576 -80.66413879 23.47129822 C-79.35225082 23.48133377 -78.04036285 23.49136932 -76.6887207 23.50170898 C-75.53894241 23.50154282 -74.38916412 23.50137665 -73.20454407 23.50120544 C-68.51923891 24.23048382 -65.48420928 26.56526436 -62.125 29.8125 C-60.46383859 33.04253607 -60.629065 35.41429498 -61 39 C-62.24358311 42.59257342 -63.21040713 44.44394052 -66.32861328 46.63989258 C-71.73227844 48.64174247 -76.89697846 48.48053369 -82.6171875 48.51171875 C-83.82948029 48.52966995 -85.04177307 48.54762115 -86.290802 48.56611633 C-90.15216626 48.62017724 -94.01340716 48.6541027 -97.875 48.6875 C-100.49741298 48.72067666 -103.11980969 48.75516664 -105.7421875 48.79101562 C-112.16134773 48.87590158 -118.580524 48.94426957 -125 49 C-125.38218767 50.65614657 -125.71395102 52.32457024 -126 54 C-124.32363021 55.67636979 -122.2656118 55.14460709 -119.96459961 55.16113281 C-118.88935532 55.17074036 -117.81411102 55.1803479 -116.70628357 55.19024658 C-115.53348343 55.19449646 -114.36068329 55.19874634 -113.15234375 55.203125 C-111.95194962 55.20882507 -110.75155548 55.21452515 -109.51478577 55.22039795 C-106.9650257 55.22986904 -104.41525327 55.23639025 -101.86547852 55.24023438 C-97.97845733 55.24989817 -94.09197411 55.28088516 -90.20507812 55.3125 C-87.72916981 55.31903393 -85.25325771 55.32428287 -82.77734375 55.328125 C-81.61871323 55.3404718 -80.4600827 55.3528186 -79.26634216 55.36553955 C-71.71382145 55.3448837 -65.31355025 55.16497048 -59.57778931 49.68640137 C-58.72711884 48.79988892 -57.87644836 47.91337646 -57 47 C-56.22972977 46.22750916 -55.45945953 45.45501831 -54.66584778 44.65911865 C-53.86579819 43.85605286 -53.0657486 43.05298706 -52.24145508 42.22558594 C-47.72961318 37.69781308 -43.21562065 33.17219544 -38.70000172 28.64818954 C-35.97519529 25.91813836 -33.25134416 23.18714722 -30.52954102 20.45410156 C-27.88701818 17.80073904 -25.24208224 15.14980449 -22.59543419 12.50055695 C-21.58861926 11.49189324 -20.58268544 10.48234927 -19.57764626 9.4719162 C-18.17753627 8.06457922 -16.77403086 6.66062267 -15.37036133 5.25683594 C-14.57269852 4.45695251 -13.77503571 3.65706909 -12.95320129 2.83294678 C-9.12918477 -0.75563305 -5.0389229 -0.77782031 0 0 Z " fill="#FBDCB5" transform="translate(425,310)"/>
<path d="M0 0 C9.21340517 5.55492175 17.0400399 13.79097033 19.78515625 24.328125 C20.68048445 27.50847649 20.68048445 27.50847649 23.15625 29.5078125 C24.54700308 29.97577857 25.94894732 30.41158514 27.359375 30.81640625 C33.22092766 32.63627879 35.90775582 36.85044526 38.78515625 41.953125 C42.36114073 49.67271055 43.00530418 56.60410647 40.33203125 64.73046875 C36.89640981 72.36623179 32.7257244 76.63986586 25.42488098 80.50382996 C21.00332971 81.89611518 16.75673964 81.73955629 12.1472168 81.7277832 C11.11570496 81.73289413 10.08419312 81.73800507 9.02142334 81.74327087 C5.61318144 81.75716482 2.20514185 81.75620998 -1.203125 81.75390625 C-3.575781 81.75779376 -5.9484363 81.76212854 -8.3210907 81.76689148 C-13.29505671 81.77435362 -18.26895175 81.77406276 -23.24291992 81.76879883 C-29.60827673 81.76300937 -35.97334207 81.77992284 -42.3386507 81.8031435 C-47.2397989 81.81789713 -52.14087721 81.81875021 -57.04204369 81.81563377 C-59.38832361 81.81614633 -61.73460751 81.82137175 -64.08086586 81.83144569 C-67.36700825 81.8438217 -70.65258692 81.83701057 -73.9387207 81.82543945 C-74.90263229 81.83308319 -75.86654388 81.84072693 -76.85966492 81.84860229 C-84.51770178 81.78918774 -91.28132713 80.41984208 -97.20703125 75.109375 C-102.86808726 68.32890114 -105.09655131 60.1973524 -104.9921875 51.53515625 C-104.02562205 44.13107722 -100.42691376 37.42911793 -94.52734375 32.828125 C-90.20192092 30.03990348 -86.94367966 28.49679713 -81.71484375 28.328125 C-78.96454114 28.05104227 -77.88141423 27.73541824 -75.87109375 25.7890625 C-75.32453125 25.10070312 -74.77796875 24.41234375 -74.21484375 23.703125 C-69.84793499 18.20990946 -64.74577829 14.93287046 -57.6796875 14.1171875 C-53.16274025 14.05639413 -49.00274288 14.48656541 -44.58984375 15.453125 C-44.21214844 14.88464844 -43.83445313 14.31617188 -43.4453125 13.73046875 C-33.49574748 -0.22688358 -16.37236542 -7.560572 0 0 Z " fill="#FEFEFE" transform="translate(280.58984375,212.546875)"/>
<path d="M0 0 C18.80859375 32.6015625 18.80859375 32.6015625 20.65917969 35.80932617 C21.89280984 37.94756389 23.12653477 40.08574693 24.36035156 42.22387695 C27.55104746 47.75344458 30.73994985 53.28403434 33.92578125 58.81640625 C35.22131657 61.06512583 36.51688896 63.31382405 37.8125 65.5625 C38.43326416 66.64080078 39.05402832 67.71910156 39.69360352 68.83007812 C42.4911637 73.68241733 45.30120151 78.52569306 48.1640625 83.33984375 C48.63739014 84.13640381 49.11071777 84.93296387 49.59838867 85.75366211 C50.4642552 87.2061394 51.33395536 88.65634118 52.20825195 90.10375977 C55 94.78197057 55 94.78197057 55 97 C42.69381 104.04877598 30.37327083 111.06956825 18 118 C14.10979497 114.58506889 12.01762861 110.74972533 9.625 106.25 C5.6088573 98.85801337 1.44868537 91.56591912 -2.8125 84.3125 C-8.08822548 75.31733778 -13.26016101 66.26987104 -18.37060547 57.17993164 C-22.02830432 50.68579935 -25.75505634 44.23775807 -29.57910156 37.84008789 C-32.87113154 32.3089827 -35.94217878 26.66335187 -39 21 C-36.5859375 19.59179688 -36.5859375 19.59179688 -34.171875 18.18359375 C-33.14320313 17.58353516 -32.11453125 16.98347656 -31.0546875 16.36523438 C-21.421875 10.74609375 -21.421875 10.74609375 -18.22851562 8.89013672 C-16.02135079 7.59795053 -13.82244105 6.29158736 -11.63085938 4.97314453 C-10.56158203 4.3336084 -9.49230469 3.69407227 -8.390625 3.03515625 C-6.94478027 2.16129272 -6.94478027 2.16129272 -5.46972656 1.26977539 C-3 0 -3 0 0 0 Z " fill="#2A5099" transform="translate(211,322)"/>
<path d="M0 0 C1.97909398 -0.02686553 3.95828971 -0.04633375 5.9375 -0.0625 C7.03964844 -0.07410156 8.14179688 -0.08570313 9.27734375 -0.09765625 C12 0 12 0 13 1 C13.36760731 3.32817964 13.70241581 5.6618385 14 8 C17.28704716 9.28485606 17.28704716 9.28485606 21 10 C23.19038423 8.62831762 23.19038423 8.62831762 25 7 C29.04876688 7.48950255 31.14496739 9.52070874 33.86328125 12.3828125 C35 14 35 14 35 16.625 C34 19 34 19 32.8125 21 C31.70988249 23.10275403 31.70988249 23.10275403 32.875 25.75 C33.24625 26.4925 33.6175 27.235 34 28 C35.134375 28.144375 36.26875 28.28875 37.4375 28.4375 C41 29 41 29 42 30 C42.07244053 32.01964199 42.08377188 34.04167124 42.0625 36.0625 C42.05347656 37.16722656 42.04445313 38.27195313 42.03515625 39.41015625 C42.02355469 40.26480469 42.01195312 41.11945313 42 42 C41.44570313 42.14695313 40.89140625 42.29390625 40.3203125 42.4453125 C35.39488 43.93978771 35.39488 43.93978771 32.3125 47.9375 C31.93087275 51.67744707 32.73187966 52.18753078 35 55 C35.09875272 58.75260322 33.62368819 60.70384949 31.1875 63.375 C29.66796875 64.9609375 29.66796875 64.9609375 28 66 C24.95634285 65.68085925 23.619507 64.746338 21 63 C18.93089407 62.97250522 18.93089407 62.97250522 16.8125 63.375 C15.554375 63.58125 14.29625 63.7875 13 64 C13.020625 65.299375 13.04125 66.59875 13.0625 67.9375 C13.08399454 69.29165633 13.07148199 70.64756083 13 72 C12 73 12 73 9.27734375 73.09765625 C8.17519531 73.08605469 7.07304687 73.07445312 5.9375 73.0625 C4.83277344 73.05347656 3.72804688 73.04445313 2.58984375 73.03515625 C1.73519531 73.02355469 0.88054687 73.01195312 0 73 C-1.49821059 69.62902617 -2 67.79557881 -2 64 C-7.47220467 62.75722018 -7.47220467 62.75722018 -12.5 64.4375 C-12.995 64.953125 -13.49 65.46875 -14 66 C-18.29238623 64.34908222 -20.8793915 61.26245434 -24 58 C-23.690625 57.278125 -23.38125 56.55625 -23.0625 55.8125 C-21.45938265 51.56895406 -20.53636411 48.39090767 -22 44 C-25.96 43.505 -25.96 43.505 -30 43 C-30.02685938 40.85423363 -30.04633088 38.70837355 -30.0625 36.5625 C-30.07410156 35.36753906 -30.08570313 34.17257813 -30.09765625 32.94140625 C-30 30 -30 30 -29 29 C-26.66702567 28.95907063 -24.33294775 28.95758277 -22 29 C-20.70834474 23.59885717 -20.70834474 23.59885717 -22.5 18.75 C-22.995 18.1725 -23.49 17.595 -24 17 C-23.50104661 12.95016162 -21.48224016 10.85783336 -18.6171875 8.13671875 C-17 7 -17 7 -14.375 7 C-12 8 -12 8 -10 9.1875 C-7.95610524 10.21455377 -7.95610524 10.21455377 -5.4375 9.625 C-1.84327022 7.22884682 -1.15475867 4.03696119 0 0 Z " fill="#2C5198" transform="translate(340,152)"/>
<path d="M0 0 C0.99 0.99 0.99 0.99 2 2 C-1.96 5.96 -5.92 9.92 -10 14 C-8.07859132 17.84281736 -6.4073184 19.80431927 -3.375 22.75 C-2.55773437 23.54921875 -1.74046875 24.3484375 -0.8984375 25.171875 C-0.27195312 25.77515625 0.35453125 26.3784375 1 27 C4.58834417 24.00617439 8.06642302 20.99130205 11.3125 17.625 C14 15 14 15 16 15 C17.53094342 22.65471711 16.2827774 27.98231177 12.4375 34.75 C7.8170279 39.01505117 2.52267457 41.74773254 -3.75 42.375 C-7 42 -7 42 -9.70166016 41.05297852 C-14.19396666 40.9808223 -15.65356519 42.6912934 -18.86361694 45.66014099 C-19.57635773 46.3588179 -20.28909851 47.05749481 -21.0234375 47.77734375 C-22.14270126 48.8545443 -22.14270126 48.8545443 -23.28457642 49.95350647 C-24.85873706 51.48344819 -26.42334743 53.02326834 -27.97900391 54.57202148 C-30.3494519 56.9122773 -32.77387914 59.18423675 -35.20703125 61.45898438 C-44.54721769 70.03835581 -44.54721769 70.03835581 -48.00564575 81.7013092 C-47.885955 83.68401699 -47.61450301 85.65587039 -47.33422852 87.62231445 C-46.87183744 92.29520014 -48.34003762 94.73564944 -51.21484375 98.296875 C-56.16868686 103.0230798 -61.37926375 104.98161577 -68.125 105.1875 C-72 105 -72 105 -74 103 C-69.71 98.71 -65.42 94.42 -61 90 C-64.52587708 85.81814579 -68.07553326 81.80904125 -72 78 C-75.90285767 79.58667578 -78.33520982 82.13350481 -81.25 85.125 C-82.14203125 86.03507812 -83.0340625 86.94515625 -83.953125 87.8828125 C-84.62859375 88.58148438 -85.3040625 89.28015625 -86 90 C-86.66 89.67 -87.32 89.34 -88 89 C-88.5554163 82.28563408 -88.53471154 77.291495 -84.4921875 71.71875 C-81.01037983 67.7082909 -77.2494021 64.3428703 -72 63 C-64.44323654 62.48353055 -64.44323654 62.48353055 -61.0869751 63.68458557 C-58.95901849 64.23427045 -58.95901849 64.23427045 -57.22821045 62.9236908 C-56.63308655 62.3596907 -56.03796265 61.79569061 -55.42480469 61.21459961 C-54.74440125 60.5790062 -54.0639978 59.94341278 -53.36297607 59.28855896 C-52.63991272 58.58360794 -51.91684937 57.87865692 -51.171875 57.15234375 C-50.42286926 56.42946671 -49.67386353 55.70658966 -48.90216064 54.96180725 C-47.31845404 53.42101603 -45.74186859 51.87287706 -44.171875 50.31811523 C-41.77709774 47.9641361 -39.33668763 45.66570981 -36.890625 43.36523438 C-28.45771534 35.85759296 -28.45771534 35.85759296 -24.01000977 25.91259766 C-23.96042664 22.22339884 -23.96042664 22.22339884 -24.5637207 18.87133789 C-25.13853162 15.08826502 -24.27719499 12.88758108 -22.3359375 9.6796875 C-16.41623381 2.2367852 -9.57996979 -1.27983879 0 0 Z " fill="#F5852E" transform="translate(422,212)"/>
<path d="M0 0 C4.92070998 2.68922522 9.11937105 6.94851053 10.875 12.375 C11.50906978 18.71569778 10.49263876 23.08948883 6.875 28.375 C2.33424735 32.7993231 -1.79583837 34.4685631 -8.0625 34.75 C-12.85726226 34.63617775 -15.45962428 33.61416924 -19.125 30.375 C-24.16507659 25.00622276 -25.54541443 21.58140119 -25.46875 14.26953125 C-24.93265462 9.75536449 -23.14838042 6.71331588 -20.125 3.375 C-13.783369 -1.57147218 -7.59235661 -3.4588997 0 0 Z " fill="#F3B451" transform="translate(353.125,171.625)"/>
</svg>
