<svg xmlns="http://www.w3.org/2000/svg" width="199" height="35" fill="none"><path fill="#fff" fill-rule="evenodd" d="M21.615 23.333c.877 0 1.392-.987.89-1.706L15.88 12.13a1.09 1.09 0 0 0-.89-.464H9.77c-.877 0-1.392.987-.89 1.706l6.625 9.496c.203.29.535.464.89.464zM16.15 34.536c-.203.29-.535.464-.89.464H9.226a1.085 1.085 0 0 1-.89-1.706l5.759-8.255a1.085 1.085 0 0 0-.89-1.706H7.711c-.354 0-.687-.173-.89-.464L.197 13.373a1.085 1.085 0 0 1 .89-1.706H6.85c.354 0 .687-.173.89-.464L15.232.464c.203-.29.535-.464.89-.464h5.764c.877 0 1.392.987.89 1.706l-5.759 8.255c-.502.72.013 1.706.89 1.706h5.494c.354 0 .686.173.89.464l6.625 9.496a1.085 1.085 0 0 1-.89 1.706h-5.493c-.355 0-.687.173-.89.464z" clip-rule="evenodd"/><path fill="#fff" d="M49.104 30.48q-2.72 0-4.896-.96-2.144-.96-3.424-2.784-1.28-1.855-1.312-4.512h4.448q.16 2.24 1.568 3.36t3.52 1.12q2.08 0 3.392-.8 1.344-.832 1.344-2.24 0-.768-.384-1.28-.353-.544-1.056-.928-.704-.416-1.76-.736l-5.024-1.6a15 15 0 0 1-2.848-1.216 6.1 6.1 0 0 1-2.112-1.92q-.768-1.185-.768-3.104 0-2.24 1.088-3.872 1.12-1.665 3.104-2.56Q46 5.52 48.688 5.52q3.871 0 6.336 1.952 2.496 1.92 2.848 5.472H53.36q-.32-1.856-1.6-2.784-1.248-.928-3.232-.928-1.312 0-2.272.384t-1.472 1.088q-.512.672-.512 1.6 0 1.056.704 1.792.736.704 2.208 1.184l5.12 1.632q1.889.608 3.168 1.472 1.312.864 1.952 2.08.672 1.185.672 2.88 0 2.112-1.12 3.744-1.087 1.6-3.136 2.496-2.016.896-4.736.896m21.524 0q-2.721 0-4.896-.96-2.144-.96-3.424-2.784-1.28-1.855-1.312-4.512h4.448q.16 2.24 1.568 3.36 1.407 1.12 3.52 1.12 2.08 0 3.392-.8 1.344-.832 1.344-2.24 0-.768-.384-1.28-.353-.544-1.056-.928-.704-.416-1.76-.736l-5.024-1.6a15 15 0 0 1-2.848-1.216 6.1 6.1 0 0 1-2.112-1.92q-.768-1.185-.768-3.104 0-2.24 1.088-3.872 1.12-1.665 3.104-2.56 2.016-.928 4.704-.928 3.872 0 6.336 1.952 2.496 1.92 2.848 5.472h-4.512q-.32-1.856-1.6-2.784-1.248-.928-3.232-.928-1.312 0-2.272.384t-1.472 1.088q-.512.672-.512 1.6 0 1.056.704 1.792.735.704 2.208 1.184l5.12 1.632q1.887.608 3.168 1.472 1.311.864 1.952 2.08.672 1.185.672 2.88 0 2.112-1.12 3.744-1.088 1.6-3.136 2.496-2.016.896-4.736.896m16.88-.48V9.936H80.34V6h18.752v3.936h-7.168V30zm32.327.48q-2.529 0-4.576-.864a10.2 10.2 0 0 1-3.52-2.528q-1.473-1.665-2.272-3.968-.768-2.304-.768-5.12 0-2.848.768-5.12.8-2.304 2.24-3.936a9.7 9.7 0 0 1 3.488-2.528q2.016-.896 4.512-.896 2.88 0 4.96 1.088 2.112 1.056 3.328 3.008 1.248 1.92 1.472 4.48h-4.416q-.257-1.409-.96-2.432a4.6 4.6 0 0 0-1.76-1.632q-1.089-.608-2.56-.608-1.984 0-3.456 1.088-1.473 1.056-2.272 3.008-.8 1.92-.8 4.48t.8 4.512q.8 1.92 2.272 3.008 1.503 1.088 3.552 1.088 1.791 0 2.912-.736a4.9 4.9 0 0 0 1.76-1.92 8 8 0 0 0 .8-2.592h4.384q-.192 2.848-1.472 4.896a8.6 8.6 0 0 1-3.392 3.136q-2.112 1.088-5.024 1.088m17.656-.48q-1.983 0-3.104-1.152-1.12-1.185-1.12-3.36V6h4.032v18.848q0 .832.352 1.216.384.384.96.384h.896V30zm12.504.48q-2.433 0-4.352-1.12a8.24 8.24 0 0 1-2.976-3.136q-1.089-2.016-1.088-4.64 0-2.625 1.056-4.672 1.088-2.048 3.008-3.2 1.92-1.184 4.352-1.184 2.463 0 4.352 1.184 1.888 1.152 2.944 3.2 1.088 2.048 1.088 4.672t-1.088 4.64a8 8 0 0 1-2.944 3.136q-1.889 1.12-4.352 1.12m0-3.52q1.28 0 2.208-.672.927-.705 1.472-1.92.576-1.216.576-2.784 0-1.632-.544-2.848-.544-1.248-1.504-1.952-.929-.704-2.208-.704-1.248 0-2.24.704-.96.672-1.504 1.92t-.544 2.88q0 1.6.544 2.816.543 1.215 1.504 1.888a3.9 3.9 0 0 0 2.24.672m18.8 3.52q-2.143 0-3.808-.928a6.8 6.8 0 0 1-2.624-2.592q-.928-1.664-.928-3.872V13.04h4.064v10.176q0 1.695.928 2.72.928 1.024 2.368 1.024 1.473 0 2.4-1.024.96-1.025.96-2.72V13.04h4.032v10.048q0 2.208-.96 3.872a6.6 6.6 0 0 1-2.592 2.592q-1.663.928-3.84.928m18.296 0q-2.241 0-4.032-1.12-1.76-1.152-2.752-3.168-.993-2.048-.992-4.736 0-2.655.928-4.672.96-2.017 2.624-3.136 1.663-1.12 3.808-1.12 2.463 0 4.064 1.408 1.632 1.408 2.08 3.904v7.104q-.449 2.528-1.952 4.032-1.472 1.504-3.776 1.504m.608-3.584q1.248 0 2.144-.672.895-.672 1.408-1.888.512-1.248.512-2.912 0-1.695-.512-2.912-.513-1.248-1.408-1.92-.897-.672-2.144-.672-1.28 0-2.272.672-.96.672-1.504 1.92-.513 1.215-.512 2.912 0 1.665.544 2.912.544 1.215 1.504 1.888t2.24.672m4.64 3.104-.544-4.576V6h4.032v24z"/></svg>