<svg xmlns="http://www.w3.org/2000/svg" width="35" height="35" fill="none"><path fill="#fff" fill-rule="evenodd" d="M21.615 23.333c.877 0 1.392-.987.89-1.706L15.88 12.13a1.09 1.09 0 0 0-.89-.464H9.77c-.877 0-1.392.987-.89 1.706l6.625 9.496c.203.29.535.464.89.464zM16.15 34.536c-.203.29-.535.464-.89.464H9.226a1.085 1.085 0 0 1-.89-1.706l5.759-8.255a1.085 1.085 0 0 0-.89-1.706H7.711c-.354 0-.687-.173-.89-.464L.197 13.373a1.085 1.085 0 0 1 .89-1.706H6.85c.354 0 .687-.173.89-.464L15.232.464c.203-.29.535-.464.89-.464h5.764c.877 0 1.392.987.89 1.706l-5.759 8.255c-.502.72.013 1.706.89 1.706h5.494c.354 0 .686.173.89.464l6.625 9.496a1.085 1.085 0 0 1-.89 1.706h-5.493c-.355 0-.687.173-.89.464z" clip-rule="evenodd"/></svg>